<svg width="18" height="17" viewBox="0 0 18 17" fill="none" xmlns="http://www.w3.org/2000/svg">
<path d="M5.0625 7.75391H3.9375C3.64627 7.75391 3.41016 7.99002 3.41016 8.28125C3.41016 8.57248 3.64627 8.80859 3.9375 8.80859H5.0625C5.35373 8.80859 5.58984 8.57248 5.58984 8.28125C5.58984 7.99002 5.35373 7.75391 5.0625 7.75391Z" fill="#AEAEAE"/>
<path d="M5.0625 10.0039H3.9375C3.64627 10.0039 3.41016 10.24 3.41016 10.5312C3.41016 10.8225 3.64627 11.0586 3.9375 11.0586H5.0625C5.35373 11.0586 5.58984 10.8225 5.58984 10.5312C5.58984 10.24 5.35373 10.0039 5.0625 10.0039Z" fill="#AEAEAE"/>
<path d="M5.0625 12.2539H3.9375C3.64627 12.2539 3.41016 12.49 3.41016 12.7812C3.41016 13.0725 3.64627 13.3086 3.9375 13.3086H5.0625C5.35373 13.3086 5.58984 13.0725 5.58984 12.7812C5.58984 12.49 5.35373 12.2539 5.0625 12.2539Z" fill="#AEAEAE"/>
<path d="M9.5625 7.75391H8.4375C8.14627 7.75391 7.91016 7.99002 7.91016 8.28125C7.91016 8.57248 8.14627 8.80859 8.4375 8.80859H9.5625C9.85373 8.80859 10.0898 8.57248 10.0898 8.28125C10.0898 7.99002 9.85373 7.75391 9.5625 7.75391Z" fill="#AEAEAE"/>
<path d="M9.5625 10.0039H8.4375C8.14627 10.0039 7.91016 10.24 7.91016 10.5312C7.91016 10.8225 8.14627 11.0586 8.4375 11.0586H9.5625C9.85373 11.0586 10.0898 10.8225 10.0898 10.5312C10.0898 10.24 9.85373 10.0039 9.5625 10.0039Z" fill="#AEAEAE"/>
<path d="M9.5625 12.2539H8.4375C8.14627 12.2539 7.91016 12.49 7.91016 12.7812C7.91016 13.0725 8.14627 13.3086 8.4375 13.3086H9.5625C9.85373 13.3086 10.0898 13.0725 10.0898 12.7812C10.0898 12.49 9.85373 12.2539 9.5625 12.2539Z" fill="#AEAEAE"/>
<path d="M14.0625 7.75391H12.9375C12.6463 7.75391 12.4102 7.99002 12.4102 8.28125C12.4102 8.57248 12.6463 8.80859 12.9375 8.80859H14.0625C14.3537 8.80859 14.5898 8.57248 14.5898 8.28125C14.5898 7.99002 14.3537 7.75391 14.0625 7.75391Z" fill="#AEAEAE"/>
<path d="M14.0625 10.0039H12.9375C12.6463 10.0039 12.4102 10.24 12.4102 10.5312C12.4102 10.8225 12.6463 11.0586 12.9375 11.0586H14.0625C14.3537 11.0586 14.5898 10.8225 14.5898 10.5312C14.5898 10.24 14.3537 10.0039 14.0625 10.0039Z" fill="#AEAEAE"/>
<path d="M14.0625 12.2539H12.9375C12.6463 12.2539 12.4102 12.49 12.4102 12.7812C12.4102 13.0725 12.6463 13.3086 12.9375 13.3086H14.0625C14.3537 13.3086 14.5898 13.0725 14.5898 12.7812C14.5898 12.49 14.3537 12.2539 14.0625 12.2539Z" fill="#AEAEAE"/>
<path d="M16.418 1.47186H15.1523V0.551948C15.1523 0.247126 14.9162 0 14.625 0C14.3338 0 14.0977 0.247126 14.0977 0.551948V1.47186H9.52734V0.551948C9.52734 0.247126 9.29123 0 9 0C8.70877 0 8.47266 0.247126 8.47266 0.551948V1.47186H3.90234V0.551948C3.90234 0.247126 3.66623 0 3.375 0C3.08377 0 2.84766 0.247126 2.84766 0.551948V1.47186H1.58203C0.709699 1.47186 0 2.21467 0 3.12771V15.3442C0 16.2572 0.709699 17 1.58203 17H16.418C17.2903 17 18 16.2572 18 15.3442C18 14.9879 18 3.43772 18 3.12771C18 2.21467 17.2903 1.47186 16.418 1.47186ZM1.05469 3.12771C1.05469 2.82336 1.29125 2.57576 1.58203 2.57576H2.84766V3.49567C2.84766 3.80049 3.08377 4.04762 3.375 4.04762C3.66623 4.04762 3.90234 3.80049 3.90234 3.49567V2.57576H8.47266V3.49567C8.47266 3.80049 8.70877 4.04762 9 4.04762C9.29123 4.04762 9.52734 3.80049 9.52734 3.49567V2.57576H14.0977V3.49567C14.0977 3.80049 14.3338 4.04762 14.625 4.04762C14.9162 4.04762 15.1523 3.80049 15.1523 3.49567V2.57576H16.418C16.7087 2.57576 16.9453 2.82336 16.9453 3.12771V5.2987H1.05469V3.12771ZM16.418 15.8961H1.58203C1.29125 15.8961 1.05469 15.6485 1.05469 15.3442V6.4026H16.9453V15.3442C16.9453 15.6485 16.7087 15.8961 16.418 15.8961Z" fill="#AEAEAE"/>
</svg>
