<svg width="30" height="30" viewBox="0 0 30 30" fill="none" xmlns="http://www.w3.org/2000/svg">
<path d="M19.2525 25.8621V17.4548H22.1688L22.605 14.1866H19.2525V12.101C19.2525 11.1548 19.525 10.5091 20.93 10.5091H22.7225V7.58604C21.8547 7.49715 20.9826 7.45404 20.11 7.4569C17.5262 7.4569 15.7575 8.98001 15.7575 11.7776V14.1866H12.835V17.4548H15.7575V25.8621H5C4.66848 25.8621 4.35054 25.7349 4.11612 25.5086C3.8817 25.2822 3.75 24.9753 3.75 24.6552V5.34484C3.75 5.02475 3.8817 4.71777 4.11612 4.49143C4.35054 4.26509 4.66848 4.13794 5 4.13794H25C25.3315 4.13794 25.6495 4.26509 25.8839 4.49143C26.1183 4.71777 26.25 5.02475 26.25 5.34484V24.6552C26.25 24.9753 26.1183 25.2822 25.8839 25.5086C25.6495 25.7349 25.3315 25.8621 25 25.8621H19.2525Z" fill="#F5F5F5"/>
</svg>
