<svg width="23" height="23" viewBox="0 0 23 23" fill="none" xmlns="http://www.w3.org/2000/svg">
<path d="M14.3694 11.4999C14.3694 15.47 11.1533 18.6867 7.18469 18.6867C3.21608 18.6867 0 15.4692 0 11.4999C0 7.53061 3.21687 4.31311 7.18469 4.31311C11.1525 4.31311 14.3694 7.53061 14.3694 11.4999Z" fill="white"/>
<path d="M15.8132 4.31311C14.2019 4.31311 12.7186 4.84998 11.5198 5.7462L11.5256 5.74691C11.7613 5.97471 12.0214 6.13504 12.222 6.39728L10.7271 6.42101C10.4928 6.65748 10.2794 6.91476 10.0781 7.18213H12.7142C12.9147 7.42286 13.1001 7.63205 13.2683 7.89793H9.60021C9.46582 8.12935 9.34152 8.36724 9.23298 8.61443H13.686C13.8024 8.86091 13.9066 9.0471 13.995 9.308H8.96923C8.88946 9.55598 8.8212 9.80963 8.76941 10.0683H14.2056C14.2588 10.317 14.2997 10.5469 14.3277 10.7813H8.66158C8.63786 11.0178 8.62564 11.2578 8.62564 11.5H14.3686C14.3686 11.7544 14.3507 11.9901 14.3248 12.2187H8.66158C8.68602 12.4624 8.72196 12.7017 8.76941 12.9374H14.1969C14.1408 13.1703 14.0761 13.4045 13.9949 13.6475H8.95268C9.02882 13.8932 9.1216 14.1318 9.22289 14.3647H13.686C13.5624 14.6263 13.4222 14.8354 13.2677 15.0805H9.58737C9.73256 15.332 9.89281 15.572 10.0667 15.802L12.7143 15.8415C12.4886 16.1124 12.199 16.2756 11.9352 16.5128C11.9496 16.5243 11.5133 16.5114 10.6545 16.4977C11.9611 17.846 13.7872 18.6868 15.8132 18.6868C19.7825 18.6868 23 15.4692 23 11.5C23 7.53077 19.7832 4.31311 15.8132 4.31311Z" fill="#AEAEAE"/>
</svg>
