<svg width="16" height="19" viewBox="0 0 16 19" fill="none" xmlns="http://www.w3.org/2000/svg">
<path d="M9.09924 12.2111L9.32076 11.9672H8.871L9.09924 12.2111Z" fill="white"/>
<path d="M0.782043 1.26794V17.732H10.2505V15.3851C10.2505 15.283 10.2941 15.1841 10.3646 15.1149C10.4384 15.0423 10.5391 15.0028 10.6398 15.0028H13.1303V9.81144L9.64296 13.7107C9.50871 13.859 9.32075 13.9447 9.11265 13.9447C8.91462 13.9447 8.72331 13.8623 8.59241 13.7206L6.95448 11.9671H2.22194V10.8266H10.3277V10.8497L11.0191 10.0784H2.21859V8.93797H11.6669V9.35328L13.1336 7.71512V1.26794H0.782043ZM11.6669 8.18316H2.21859V7.04271H11.6669V8.18316ZM11.6669 6.28791H3.59471V5.14745H11.6635V6.28791H11.6669Z" fill="#AEAEAE"/>
<path d="M13.1336 14.9995H10.6432C10.5391 14.9995 10.4384 15.0391 10.3679 15.1116C10.2941 15.1841 10.2538 15.283 10.2538 15.3819V17.7287H0.782043V1.26799H13.1336V7.70857L13.9157 6.8351V0.885644C13.9157 0.783465 13.8754 0.684582 13.8016 0.615363C13.7311 0.539553 13.6304 0.5 13.5263 0.5H0.3927C0.288651 0.5 0.187959 0.539553 0.114118 0.612067C0.0402769 0.684582 0 0.783465 0 0.885644V18.1177C0 18.2198 0.0402769 18.3187 0.114118 18.3879C0.187959 18.4604 0.288651 18.5 0.389343 18.5H11.1299C11.2339 18.5 11.3312 18.4604 11.4051 18.3879L12.6134 17.2112L13.7982 16.0411C13.872 15.9686 13.9123 15.8697 13.9123 15.7708V8.93801L13.1303 9.81148V14.9995H13.1336ZM11.0359 17.7452V15.7675H13.1202L11.0359 17.7452Z" fill="white"/>
<path d="M11.0359 17.7451L13.1202 15.7708H11.0359V17.7451Z" fill="#CCCCCC"/>
<path d="M11.6635 5.14746H3.5947V6.28791H11.6635V5.14746Z" fill="white"/>
<path d="M11.6669 7.03943H2.21857V8.17988H11.6669V7.03943Z" fill="white"/>
<path d="M2.21857 8.9314V10.0751H11.0157L11.6669 9.34671V8.9314H2.21857Z" fill="white"/>
<path d="M2.21857 10.8234V11.9638H6.9511L6.66916 11.6639L6.32345 11.2947C6.2664 11.2321 6.25633 11.1398 6.29996 11.0673C6.33688 11.0079 6.40065 10.975 6.46778 10.975L6.51477 10.9816L8.31045 11.4167C8.34737 11.4266 8.38093 11.4463 8.40778 11.4727L8.87097 11.9704H9.32073L10.3243 10.8497V10.8267H2.21857V10.8234Z" fill="white"/>
<path d="M15.9362 6.39677L15.1676 5.73096C15.1307 5.7013 15.087 5.68152 15.0401 5.68152H15.0266C14.9763 5.68481 14.9259 5.70789 14.8924 5.74744L13.919 6.83515L13.137 7.70862L11.6702 9.34678L11.0191 10.0719L10.3277 10.8432L9.3241 11.9639L9.10257 12.2111L8.87098 11.9639L8.4078 11.4662C8.38095 11.4398 8.34738 11.42 8.31046 11.4101L6.51143 10.9783L6.46444 10.9718C6.39731 10.9718 6.33354 11.008 6.29662 11.064C6.25299 11.1366 6.26305 11.2289 6.32011 11.2915L6.66582 11.6606L6.94776 11.9606L8.58569 13.7141C8.71994 13.8558 8.9079 13.9382 9.10593 13.9382C9.31403 13.935 9.50534 13.8493 9.63624 13.7042L13.1303 9.80494L13.9123 8.93147L15.9463 6.66046C16.0235 6.58795 16.0168 6.46599 15.9362 6.39677Z" fill="#F5F5F5"/>
</svg>
