<svg width="31" height="31" viewBox="0 0 31 31" fill="none" xmlns="http://www.w3.org/2000/svg">
<path d="M12.6713 10.6495L11.1155 20.3313H13.6023L15.1572 10.6495C15.1572 10.6495 12.6713 10.6495 12.6713 10.6495ZM20.1724 14.5933C19.3034 14.1642 18.7706 13.8746 18.7706 13.4356C18.7812 13.0366 19.2211 12.6277 20.2034 12.6277C21.0113 12.6074 21.6052 12.7973 22.0557 12.9862L22.2813 13.0869L22.6194 11.0613C22.1282 10.8714 21.3494 10.6622 20.3874 10.6622C17.9317 10.6622 16.2024 11.939 16.1917 13.7651C16.1714 15.1127 17.4297 15.8605 18.3714 16.3091C19.3334 16.7692 19.6609 17.0676 19.6609 17.4764C19.6503 18.1042 18.883 18.3938 18.1671 18.3938C17.1752 18.3938 16.6423 18.2446 15.8334 17.8948L15.506 17.7457L15.1582 19.8508C15.7424 20.1105 16.8167 20.339 17.9318 20.3507C20.5416 20.3507 22.2398 19.0932 22.2612 17.1471C22.2697 16.0795 21.6061 15.2618 20.1724 14.5933ZM28.9948 10.6795H27.0708C26.4779 10.6795 26.0274 10.85 25.7707 11.4584L22.0768 20.3313H24.6866L25.4054 18.4103H28.3253L28.6982 20.339H31L28.9948 10.6795ZM26.1292 16.4716C26.1796 16.4765 27.1309 13.3358 27.1309 13.3358L27.8885 16.4716C27.8885 16.4716 26.6204 16.4716 26.1292 16.4716ZM9.03757 10.6495L6.60114 17.2274L6.33573 15.9302C5.88523 14.4334 4.47284 12.8069 2.89662 11.999L5.12766 20.3216H7.75885L11.6687 10.6506H9.03757V10.6495Z" fill="white"/>
<path d="M5.51609 11.8985C5.32622 11.1602 4.7207 10.6624 3.89832 10.6517H0.0397376L0 10.8309C3.00996 11.5729 5.53638 13.8562 6.356 16.004L5.51609 11.8985Z" fill="white"/>
</svg>
