<svg width="18" height="18" viewBox="0 0 18 18" fill="none" xmlns="http://www.w3.org/2000/svg">
<path d="M11.9317 9.09221L18 12.9285V5.09396L11.9317 9.09221Z" fill="#0673D8"/>
<path d="M0 5.09396V12.9285L6.06825 9.09221L0 5.09396Z" fill="#0673D8"/>
<path d="M16.875 2.8125H1.12497C0.563591 2.8125 0.118091 3.231 0.0337162 3.76988L8.99997 9.67725L17.9662 3.76988C17.8818 3.231 17.4363 2.8125 16.875 2.8125Z" fill="#0673D8"/>
<path d="M10.9013 9.77172L9.30942 10.8202C9.21492 10.8821 9.10805 10.9125 9.00005 10.9125C8.89205 10.9125 8.78517 10.8821 8.69067 10.8202L7.0988 9.7706L0.036047 14.238C0.122672 14.7723 0.565922 15.1875 1.12505 15.1875H16.875C17.4342 15.1875 17.8774 14.7723 17.964 14.238L10.9013 9.77172Z" fill="#0673D8"/>
</svg>
