<svg width="598" height="312" viewBox="0 0 598 312" fill="none" xmlns="http://www.w3.org/2000/svg">
<path d="M598 177.173V177.66C598 183.014 597.578 187.881 597.155 193.236C597.155 193.722 597.155 194.209 597.155 194.696L594.621 184.474L593.354 183.014L537.186 117.791L472.15 194.696L467.927 183.014L343.343 12.6552L268.593 116.331L265.215 113.41L153.723 254.565L120.36 231.688L77.7062 183.014L27.8729 264.786L12.2472 282.309L2.5339 293.017C1.68927 290.097 0.844633 287.663 0 284.743L9.71328 273.548L22.3828 258.945L76.4393 170.359L125.006 225.36L152.456 244.343L264.37 102.215L267.749 105.136L342.921 0L473.417 178.633L473.839 179.607L536.342 105.622L592.932 171.332L593.354 171.819L598 177.173Z" fill="#4D4D4D" fill-opacity="0.1"/>
<path d="M135.141 254.078L106.424 274.521L100.511 278.415H100.089L87.8417 292.044L94.5987 276.468L73.0606 296.911L70.1044 299.345L36.7414 280.849L39.2753 277.928L65.4589 248.237L77.7061 201.997L109.802 239.476L135.141 254.078Z" fill="#4D4D4D" fill-opacity="0.1"/>
<path d="M408.803 190.802L391.065 197.616L333.63 312L312.514 278.902L323.495 252.618L303.646 280.849L290.976 252.618L323.495 183.014L293.088 234.609L293.932 226.821L307.024 193.723L280.418 237.529L282.952 213.192L242.41 217.086L264.37 183.014L177.795 248.724L273.661 127.526H281.685L326.873 56.9487L328.985 55.9753L342.499 33.0985L370.372 75.4448V92.4807L375.017 113.897L367.415 124.119L350.101 103.676L375.017 144.075L408.803 190.802Z" fill="#4D4D4D" fill-opacity="0.1"/>
<path d="M391.487 108.543L438.364 170.359L448.078 190.315L455.257 215.139L435.408 176.687L429.496 186.421L391.487 108.543Z" fill="#4D4D4D" fill-opacity="0.1"/>
<path d="M575.617 200.537C575.617 201.024 575.195 201.51 575.195 201.51C573.928 204.918 572.238 208.325 570.549 211.245C570.127 211.732 570.127 212.219 569.704 212.705L566.326 211.732L520.293 197.13L530.851 184.961L504.245 201.024L508.046 185.448L500.022 181.067L538.031 137.747L565.481 172.306L573.928 196.156L574.35 199.563L575.617 200.537Z" fill="#4D4D4D" fill-opacity="0.1"/>
</svg>
