<svg width="1329" height="650" viewBox="0 0 1329 650" fill="none" xmlns="http://www.w3.org/2000/svg">
<g clip-path="url(#clip0)">
<path d="M680.699 381.671L749.983 233.693L708.489 139.807L519.67 183.079L596.187 154.875L482.744 139.42L440.869 233.307L509.011 381.284L456.858 298.216V365.83L496.068 457.784H692.5L731.71 365.83V298.216L680.699 381.671ZM534.517 336.466L548.602 314.057H586.67L593.523 336.466H534.517ZM501.398 276.58L470.182 229.443L490.358 190.42L595.807 241.42L701.256 190.42L721.432 229.443L690.216 276.58L595.807 241.807L501.398 276.58ZM597.71 336.466L604.562 314.057H642.631L657.096 336.466H597.71Z" fill="white" fill-opacity="0.04"/>
<path d="M676.892 211.67C678.415 213.989 679.176 217.08 679.176 220.17C679.176 229.443 671.943 237.171 662.807 237.171C655.954 237.171 649.864 232.534 647.579 226.352L676.892 211.67Z" fill="white" fill-opacity="0.04"/>
<path d="M514.721 211.67C513.199 213.989 512.437 217.08 512.437 220.17C512.437 229.443 519.67 237.171 529.187 237.171C536.04 237.171 542.131 232.534 544.415 226.352L514.721 211.67Z" fill="white" fill-opacity="0.04"/>
<path d="M691.739 469.375H500.256L554.312 589.921V525.012L595.807 637.444L637.682 525.012V589.921L691.739 469.375Z" fill="white" fill-opacity="0.04"/>
<path d="M958.977 366.602L897.687 278.898L977.25 326.42L671.182 -66.1255L587.051 -36.7618L502.159 -66.1255L202.943 332.989L316.386 261.125L229.21 361.193L441.25 648.648L433.636 582.194L535.278 718.58L516.244 648.262L595.807 751.421L675.369 648.262L656.335 718.58L757.977 582.194L741.227 645.171L958.977 366.602ZM719.148 589.534L736.278 525.398L595.807 706.989L455.335 525.398L472.466 589.534L370.824 453.148L388.716 519.989L293.926 388.239L413.841 180.761L297.733 238.716L513.96 -41.0118L576.392 -22.8527L520.051 12.6928L655.193 -34.83L611.034 43.2156L495.688 87.2611L595.426 110.057L443.915 115.079L614.46 148.307L706.585 90.352L883.222 241.807L825.739 215.92L907.966 380.898L802.898 519.989L820.79 453.148L719.148 589.534Z" fill="white" fill-opacity="0.04"/>
<path d="M319.432 118.17H-145L-79.5227 208.193H249.386L319.432 118.17Z" fill="white" fill-opacity="0.04"/>
<path d="M222.358 244.898H-52.875L12.983 334.534H159.165L222.358 244.898Z" fill="white" fill-opacity="0.04"/>
<path d="M255.477 461.262H105.108L39.6309 371.239H189.619L255.477 461.262Z" fill="white" fill-opacity="0.04"/>
<path d="M282.125 497.966H131.756L197.614 587.603H347.983L282.125 497.966Z" fill="white" fill-opacity="0.04"/>
<path d="M864.568 118.17H1329L1263.52 208.193H934.613L864.568 118.17Z" fill="white" fill-opacity="0.04"/>
<path d="M961.642 244.898H1236.87L1171.02 334.534H1024.84L961.642 244.898Z" fill="white" fill-opacity="0.04"/>
<path d="M928.523 461.262H1078.89L1144.37 371.239H994.381L928.523 461.262Z" fill="white" fill-opacity="0.04"/>
<path d="M901.875 497.966H1052.24L986.386 587.603H836.017L901.875 497.966Z" fill="white" fill-opacity="0.04"/>
</g>
<defs>
<clipPath id="clip0">
<rect width="1329" height="650" fill="white"/>
</clipPath>
</defs>
</svg>
